<svg width="28" height="24" viewBox="0 0 28 24" fill="none" xmlns="http://www.w3.org/2000/svg">
<path d="M20.0114 15.0943H18.7467L18.2985 14.7238C19.8674 13.1595 20.8119 11.1286 20.8119 8.91938C20.8119 3.99314 16.1532 0 10.4059 0C4.65866 0 0 3.99314 0 8.91938C0 13.8456 4.65866 17.8388 10.4059 17.8388C12.9834 17.8388 15.3528 17.0292 17.1778 15.6844L17.6101 16.0686V17.1527L25.6146 24L28 21.9554L20.0114 15.0943ZM10.4059 15.0943C6.41967 15.0943 3.20183 12.3362 3.20183 8.91938C3.20183 5.50257 6.41967 2.74443 10.4059 2.74443C14.3922 2.74443 17.6101 5.50257 17.6101 8.91938C17.6101 12.3362 14.3922 15.0943 10.4059 15.0943Z" fill="#1573DD"/>
</svg>
